<?xml version="1.0" standalone="no"?>
<!DOCTYPE svg PUBLIC "-//W3C//DTD SVG 20010904//EN"
 "http://www.w3.org/TR/2001/REC-SVG-20010904/DTD/svg10.dtd">
<svg width="148px" height="26px" viewBox="0 0 148 26" version="1.0" xmlns="http://www.w3.org/2000/svg">

<g transform="translate(0.000000,862.000000) scale(0.100000,-0.100000)"
fill="#000000" stroke="none">
<path d="M2730 7805 c-575 -333 -1368 -790 -1763 -1017 l-719 -413 6 -270 c12
-606 96 -1165 263 -1750 134 -471 345 -983 576 -1398 67 -120 73 -128 97 -122
76 19 620 261 620 276 0 5 -19 39 -41 76 -119 193 -291 558 -398 840 -217 576
-350 1232 -363 1787 l-3 128 315 182 c1462 846 2452 1416 2461 1416 8 0 965
-549 1457 -837 79 -45 145 -83 147 -83 20 0 308 681 294 694 -7 7 -1897 1096
-1901 1095 -2 0 -473 -272 -1048 -604z"/>
<path d="M4280 6161 c-151 -65 -275 -122 -275 -127 0 -5 8 -32 18 -60 l18 -51
252 108 c138 60 259 109 268 109 14 0 445 -181 496 -208 19 -10 22 -6 42 45
12 31 18 60 14 64 -7 6 -516 224 -546 234 -7 2 -136 -50 -287 -114z"/>
<path d="M4313 5942 c-152 -66 -223 -102 -223 -112 1 -8 6 -27 13 -42 l12 -27
223 96 222 95 223 -95 222 -96 16 37 c9 20 14 40 10 43 -14 15 -458 199 -476
198 -11 -1 -120 -44 -242 -97z"/>
<path d="M4528 5849 c-17 -9 -18 -44 -18 -499 0 -270 4 -490 8 -490 5 0 27 23
50 51 l42 52 0 438 c0 423 -1 439 -19 449 -24 12 -41 12 -63 -1z"/>
<path d="M4393 5793 l-33 -17 0 -550 0 -550 45 49 44 50 1 518 c0 407 -3 517
-12 516 -7 0 -28 -8 -45 -16z"/>
<path d="M4670 5425 c0 -212 2 -385 5 -385 2 0 22 24 45 53 l40 54 0 315 0
314 -35 17 c-20 9 -40 17 -45 17 -6 0 -10 -144 -10 -385z"/>
<path d="M4248 5728 l-48 -21 0 -596 0 -596 50 50 50 50 -2 567 -3 567 -47
-21z"/>
<path d="M4828 5538 c1 -112 3 -225 5 -251 l2 -49 43 58 42 58 0 176 0 176
-35 17 c-20 9 -41 17 -48 17 -9 0 -11 -49 -9 -202z"/>
<path d="M3155 5362 c-148 -63 -272 -116 -274 -118 -4 -3 29 -95 39 -106 3 -5
121 41 262 101 l257 110 257 -110 c141 -60 258 -108 260 -107 1 2 12 27 23 55
19 49 19 53 3 62 -37 20 -541 231 -549 230 -4 -1 -129 -53 -278 -117z"/>
<path d="M3200 5148 c-129 -56 -236 -102 -237 -103 -2 -1 4 -19 13 -41 l16
-40 216 93 c119 51 223 93 230 93 8 0 108 -40 224 -90 115 -49 213 -90 218
-90 7 0 30 53 30 70 0 6 -391 179 -462 205 -7 2 -119 -41 -248 -97z"/>
<path d="M12115 5150 c-167 -33 -281 -129 -327 -275 -20 -60 -23 -92 -23 -225
l0 -155 33 -67 c36 -73 90 -126 158 -154 21 -9 120 -38 218 -65 195 -54 232
-73 266 -139 16 -31 20 -59 20 -132 0 -118 -13 -163 -59 -209 -85 -85 -252
-73 -318 24 -29 43 -42 105 -43 205 l0 83 -137 -3 -138 -3 -3 -60 c-14 -259
98 -432 318 -491 80 -21 253 -24 330 -5 130 32 231 105 279 202 43 87 53 151
49 317 -3 137 -5 151 -31 204 -31 63 -86 116 -151 146 -22 10 -121 41 -218 67
-98 26 -191 56 -207 66 -17 10 -43 37 -58 60 -26 40 -28 49 -28 153 0 94 4
117 22 151 39 74 96 105 191 105 85 0 138 -31 174 -99 25 -48 28 -63 28 -157
l0 -104 141 0 141 0 -4 128 c-6 160 -26 217 -105 302 -60 66 -125 101 -225
125 -67 16 -226 18 -293 5z"/>
<path d="M8020 4315 l0 -815 135 0 135 0 2 258 3 257 225 5 c220 5 226 6 275
32 65 34 129 98 163 163 l27 50 0 305 0 305 -27 50 c-55 106 -152 176 -269
195 -35 5 -200 10 -366 10 l-303 0 0 -815z m620 546 c69 -36 75 -60 75 -291 0
-187 -2 -208 -20 -239 -36 -62 -69 -71 -247 -71 l-158 0 0 310 0 310 158 0
c134 0 162 -3 192 -19z"/>
<path d="M9150 4315 l0 -815 430 0 430 0 0 120 0 120 -290 0 -290 0 0 225 0
225 230 0 230 0 0 120 0 120 -230 0 -230 0 0 225 0 225 290 0 291 0 -3 123 -3
122 -427 3 -428 2 0 -815z"/>
<path d="M10147 5124 c-4 -4 -7 -371 -7 -816 l0 -808 140 0 140 0 0 315 0 315
95 0 c105 0 137 -10 176 -58 13 -16 69 -151 124 -300 l99 -272 148 0 147 0
-13 38 c-93 257 -188 518 -197 535 -6 12 -27 38 -46 58 l-34 36 53 39 c59 44
111 115 130 177 9 28 13 111 13 252 0 197 -2 214 -24 269 -32 79 -118 165
-197 197 -57 22 -71 23 -399 27 -187 2 -343 0 -348 -4z m624 -267 c60 -40 69
-72 69 -247 0 -175 -9 -207 -69 -247 -32 -22 -44 -23 -192 -23 l-159 0 0 270
0 270 159 0 c148 0 160 -1 192 -23z"/>
<path d="M11327 5123 c-4 -3 -7 -370 -7 -815 l0 -808 140 0 140 0 0 815 0 815
-133 0 c-74 0 -137 -3 -140 -7z"/>
<path d="M13216 5112 c-3 -9 -86 -366 -186 -792 -100 -426 -184 -785 -187
-797 l-5 -23 144 0 144 0 32 148 c17 81 36 171 43 200 l11 52 191 -2 191 -3
37 -172 c20 -94 39 -183 43 -197 l6 -26 140 0 c77 0 140 4 140 9 0 9 -366
1568 -376 1604 -5 16 -21 18 -184 17 -158 -1 -180 -4 -184 -18z m259 -661 c36
-167 64 -306 62 -308 -2 -2 -65 -2 -139 -1 l-134 3 62 290 c71 328 75 344 80
330 2 -5 33 -147 69 -314z"/>
<path d="M14077 5123 c-4 -3 -7 -370 -7 -815 l0 -808 135 0 135 0 0 815 0 815
-128 0 c-71 0 -132 -3 -135 -7z"/>
<path d="M3413 5057 l-23 -10 0 -624 0 -624 28 20 c69 52 62 -15 60 641 -3
582 -3 593 -23 600 -11 4 -30 3 -42 -3z"/>
<path d="M3283 4999 l-43 -18 0 -646 c0 -355 3 -645 8 -645 4 0 24 15 45 33
l38 32 -3 631 -3 631 -42 -18z"/>
<path d="M3550 4474 c0 -455 2 -544 14 -537 7 4 27 20 45 35 l31 27 -2 491 -3
491 -42 19 -43 19 0 -545z"/>
<path d="M3123 4930 l-43 -19 0 -671 0 -671 45 31 45 31 0 659 c0 363 -1 660
-2 659 -2 0 -22 -9 -45 -19z"/>
<path d="M3700 4499 l0 -451 50 42 49 41 1 389 0 389 -46 20 c-26 12 -48 21
-50 21 -2 0 -4 -203 -4 -451z"/>
<path d="M2113 4566 c-144 -62 -265 -115 -269 -119 -8 -8 27 -107 38 -107 5 0
119 47 255 105 l246 106 249 -107 c143 -62 252 -103 257 -98 11 13 43 96 38
100 -5 6 -516 222 -536 228 -9 2 -134 -46 -278 -108z"/>
<path d="M2150 4354 c-118 -51 -219 -95 -224 -96 -10 -4 14 -78 25 -78 4 0
102 41 219 91 l211 90 216 -91 c119 -50 219 -88 222 -83 4 4 12 20 19 35 10
25 9 29 -16 42 -63 32 -432 186 -444 185 -7 -1 -110 -43 -228 -95z"/>
<path d="M2353 4263 c-10 -4 -13 -130 -13 -583 l0 -579 45 26 45 25 0 549 c0
532 -1 549 -19 559 -21 11 -38 12 -58 3z"/>
<path d="M2233 4211 l-43 -15 0 -588 0 -588 40 20 c23 12 43 26 46 33 2 7 3
269 2 583 l-3 571 -42 -16z"/>
<path d="M2490 3709 l0 -521 43 25 42 25 0 478 0 477 -42 18 -43 18 0 -520z"/>
<path d="M2073 4144 c-18 -8 -33 -20 -33 -27 -2 -160 0 -1163 2 -1166 2 -1 20
5 41 15 l37 18 0 588 c0 323 -3 588 -7 587 -5 0 -23 -7 -40 -15z"/>
<path d="M2640 3719 l0 -441 23 14 c12 8 32 21 45 29 l22 14 0 396 0 397 -40
16 c-22 9 -43 16 -45 16 -3 0 -5 -199 -5 -441z"/>
</g>
</svg>
